<svg width="64" height="64" viewBox="0 0 64 64" fill="none" xmlns="http://www.w3.org/2000/svg">
  <!-- Large sparkle -->
  <path d="M32 4L34.5 18.5L40 21L34.5 23.5L32 38L29.5 23.5L24 21L29.5 18.5L32 4Z" fill="#00D4E8"/>

  <!-- Medium sparkle top right -->
  <path d="M48 12L49.5 20L54 21.5L49.5 23L48 31L46.5 23L42 21.5L46.5 20L48 12Z" fill="#00D4E8" opacity="0.8"/>

  <!-- Medium sparkle bottom left -->
  <path d="M16 33L17.5 41L22 42.5L17.5 44L16 52L14.5 44L10 42.5L14.5 41L16 33Z" fill="#00D4E8" opacity="0.8"/>

  <!-- Small sparkle top left -->
  <path d="M12 10L12.8 14.2L16 15L12.8 15.8L12 20L11.2 15.8L8 15L11.2 14.2L12 10Z" fill="#00D4E8" opacity="0.6"/>

  <!-- Small sparkle bottom right -->
  <path d="M52 44L52.8 48.2L56 49L52.8 49.8L52 54L51.2 49.8L48 49L51.2 48.2L52 44Z" fill="#00D4E8" opacity="0.6"/>

  <!-- Tiny sparkle middle right -->
  <path d="M54 28L54.5 30.5L56 31L54.5 31.5L54 34L53.5 31.5L52 31L53.5 30.5L54 28Z" fill="#00D4E8" opacity="0.5"/>

  <!-- Tiny sparkle middle left -->
  <path d="M10 26L10.5 28.5L12 29L10.5 29.5L10 32L9.5 29.5L8 29L9.5 28.5L10 26Z" fill="#00D4E8" opacity="0.5"/>
</svg>
