<svg width="64" height="64" viewBox="0 0 64 64" fill="none" xmlns="http://www.w3.org/2000/svg">
  <!-- Outer chip pins -->
  <rect x="12" y="4" width="2" height="8" fill="#00D4E8" opacity="0.6"/>
  <rect x="24" y="4" width="2" height="8" fill="#00D4E8" opacity="0.6"/>
  <rect x="38" y="4" width="2" height="8" fill="#00D4E8" opacity="0.6"/>
  <rect x="50" y="4" width="2" height="8" fill="#00D4E8" opacity="0.6"/>

  <rect x="12" y="52" width="2" height="8" fill="#00D4E8" opacity="0.6"/>
  <rect x="24" y="52" width="2" height="8" fill="#00D4E8" opacity="0.6"/>
  <rect x="38" y="52" width="2" height="8" fill="#00D4E8" opacity="0.6"/>
  <rect x="50" y="52" width="2" height="8" fill="#00D4E8" opacity="0.6"/>

  <rect x="4" y="12" width="8" height="2" fill="#00D4E8" opacity="0.6"/>
  <rect x="4" y="24" width="8" height="2" fill="#00D4E8" opacity="0.6"/>
  <rect x="4" y="38" width="8" height="2" fill="#00D4E8" opacity="0.6"/>
  <rect x="4" y="50" width="8" height="2" fill="#00D4E8" opacity="0.6"/>

  <rect x="52" y="12" width="8" height="2" fill="#00D4E8" opacity="0.6"/>
  <rect x="52" y="24" width="8" height="2" fill="#00D4E8" opacity="0.6"/>
  <rect x="52" y="38" width="8" height="2" fill="#00D4E8" opacity="0.6"/>
  <rect x="52" y="50" width="8" height="2" fill="#00D4E8" opacity="0.6"/>

  <!-- Main chip body -->
  <rect x="14" y="14" width="36" height="36" rx="4" fill="none" stroke="#00D4E8" stroke-width="2"/>

  <!-- Inner circuit pattern -->
  <circle cx="32" cy="32" r="6" fill="none" stroke="#00D4E8" stroke-width="2"/>

  <!-- Circuit lines -->
  <line x1="32" y1="26" x2="32" y2="18" stroke="#00D4E8" stroke-width="2"/>
  <line x1="32" y1="38" x2="32" y2="46" stroke="#00D4E8" stroke-width="2"/>
  <line x1="26" y1="32" x2="18" y2="32" stroke="#00D4E8" stroke-width="2"/>
  <line x1="38" y1="32" x2="46" y2="32" stroke="#00D4E8" stroke-width="2"/>

  <!-- Corner nodes -->
  <circle cx="22" cy="22" r="2" fill="#00D4E8"/>
  <circle cx="42" cy="22" r="2" fill="#00D4E8"/>
  <circle cx="22" cy="42" r="2" fill="#00D4E8"/>
  <circle cx="42" cy="42" r="2" fill="#00D4E8"/>

  <!-- Diagonal connection lines -->
  <line x1="22" y1="22" x2="27.2" y2="27.2" stroke="#00D4E8" stroke-width="1.5" opacity="0.6"/>
  <line x1="42" y1="22" x2="36.8" y2="27.2" stroke="#00D4E8" stroke-width="1.5" opacity="0.6"/>
  <line x1="22" y1="42" x2="27.2" y2="36.8" stroke="#00D4E8" stroke-width="1.5" opacity="0.6"/>
  <line x1="42" y1="42" x2="36.8" y2="36.8" stroke="#00D4E8" stroke-width="1.5" opacity="0.6"/>
</svg>
